<?xml version="1.0" standalone="no"?>
<!DOCTYPE svg PUBLIC "-//W3C//DTD SVG 20010904//EN"
 "http://www.w3.org/TR/2001/REC-SVG-20010904/DTD/svg10.dtd">
<svg version="1.0" xmlns="http://www.w3.org/2000/svg"
 width="512.000000pt" height="512.000000pt" viewBox="0 0 512.000000 512.000000"
 preserveAspectRatio="xMidYMid meet">
<metadata>
Created by potrace 1.11, written by Peter Selinger 2001-2013
</metadata>
<g transform="translate(0.000000,512.000000) scale(0.100000,-0.100000)"
fill="#000000" stroke="none">
<path d="M689 5110 c-196 -25 -384 -131 -510 -288 -91 -113 -146 -237 -169
-382 -14 -90 -14 -3670 0 -3760 49 -311 259 -552 565 -647 l90 -28 1820 -3
c1233 -2 1852 1 1919 8 349 37 627 288 698 630 19 96 19 3744 0 3840 -70 337
-347 591 -687 630 -103 11 -3634 12 -3726 0z m1116 -1642 c2 -13 39 -221 80
-463 42 -242 78 -452 81 -468 5 -26 8 -24 71 58 36 48 69 82 73 78 3 -4 39
-45 80 -90 l73 -83 359 0 358 0 85 46 c50 27 90 42 97 38 7 -4 52 -38 99 -75
l87 -68 68 80 c38 44 77 90 87 101 10 12 20 19 22 16 3 -3 17 -99 30 -214 14
-115 28 -225 32 -244 4 -22 28 210 64 610 32 355 58 653 58 663 1 14 10 17 51
17 28 0 50 -3 50 -6 0 -11 162 -940 166 -953 2 -8 29 18 65 65 33 44 65 79 69
79 5 0 41 -37 80 -82 l72 -83 336 -2 337 -3 3 -47 3 -48 -360 0 -359 0 -55 60
-54 60 -96 -125 c-71 -94 -97 -121 -101 -108 -3 10 -35 191 -71 403 -37 212
-67 386 -68 387 -2 1 -31 -318 -65 -709 -34 -391 -65 -715 -68 -719 -6 -10
-94 -12 -94 -3 0 4 -20 175 -45 381 -25 205 -45 381 -45 391 -1 15 -2 16 -13
1 -7 -9 -29 -35 -50 -58 l-38 -42 -108 85 -109 84 -68 -39 -69 -38 -392 -1
-392 0 -53 60 c-29 33 -56 60 -60 60 -4 0 -49 -54 -100 -121 -51 -67 -94 -116
-96 -110 -2 6 -34 185 -72 398 -40 234 -70 378 -73 363 -4 -14 -31 -315 -62
-670 -30 -355 -57 -664 -61 -687 l-5 -43 -45 0 c-27 0 -46 5 -49 13 -2 6 -22
170 -45 362 -22 193 -43 363 -46 379 l-6 29 -47 -53 -48 -54 -108 84 -109 84
-67 -37 -68 -37 -381 0 -380 0 0 45 0 45 361 0 362 0 92 50 92 50 98 -77 c96
-76 97 -76 114 -56 71 91 156 181 162 170 3 -6 19 -124 35 -261 15 -137 29
-245 30 -240 2 5 29 306 60 669 34 391 62 663 68 667 6 4 28 8 48 8 31 0 39
-4 43 -22z"/>
</g>
</svg>
